<!-- Generated by IcoMoon.io -->
<svg version="1.1" xmlns="http://www.w3.org/2000/svg" width="41" height="32" viewBox="0 0 41 32">
<title>laptop</title>
<path d="M2.073 31.932h33.167c0 0 0 0 0.001 0 1.145 0 2.073-0.928 2.073-2.073v0-2.764c0-1.145-0.928-2.073-2.073-2.073v0h-0.691v-17.233l3.925-3.718c0.269 0.135 0.586 0.215 0.921 0.215 1.151 0 2.085-0.933 2.085-2.085s-0.933-2.085-2.085-2.085c-1.151 0-2.085 0.933-2.085 2.085 0 0.32 0.072 0.623 0.201 0.894l-0.005-0.013-2.957 2.803v-1.594c0-1.145-0.928-2.073-2.073-2.073v0h-27.64c-1.145 0-2.073 0.928-2.073 2.073v20.73h-0.691c-1.145 0-2.073 0.928-2.073 2.073v0 2.764c0 1.145 0.928 2.073 2.073 2.073v0zM39.387 1.529c0.382 0 0.691 0.309 0.691 0.691s-0.309 0.691-0.691 0.691v0c-0.382 0-0.691-0.309-0.691-0.691s0.309-0.691 0.691-0.691v0zM4.146 4.293c0-0.382 0.309-0.691 0.691-0.691h27.64c0.382 0 0.691 0.309 0.691 0.691v2.902l-1.382 1.313v-2.833c0-0.382-0.31-0.692-0.692-0.692h-24.875c-0.382 0-0.692 0.309-0.692 0.691v17.275c0 0.382 0.31 0.691 0.692 0.691h24.875c0.382 0 0.692-0.309 0.692-0.691v-12.541l1.382-1.31v15.923h-29.022v-20.728zM10.365 13.276c-0.002 0-0.004 0-0.006 0-1.145 0-2.073 0.928-2.073 2.073s0.928 2.073 2.073 2.073c0.56 0 1.069-0.222 1.442-0.584l-0.001 0.001 2.402 1.205c0.279 0.139 0.617 0.074 0.825-0.159l5.106-5.744 5.019 3.761c0.27 0.201 0.645 0.18 0.889-0.051l4.362-4.132v10.54h-23.493v-15.893h23.493v3.449l-4.889 4.63-5.061-3.794c-0.114-0.086-0.259-0.139-0.415-0.139-0.205 0-0.389 0.089-0.516 0.231l-0.001 0.001-5.176 5.824-1.935-0.968c0.014-0.083 0.023-0.167 0.026-0.251 0-1.145-0.928-2.073-2.073-2.073v0zM11.056 15.349c0 0.382-0.309 0.691-0.691 0.691s-0.691-0.309-0.691-0.691v0c0-0.382 0.309-0.691 0.691-0.691s0.691 0.309 0.691 0.691v0zM15.202 26.405h6.91v0.691c0 0.382-0.309 0.691-0.69 0.691h-5.528c-0.382 0-0.691-0.309-0.691-0.691v0-0.691zM1.383 27.096c0-0.382 0.309-0.691 0.69-0.691h11.747v0.691c0 1.145 0.928 2.073 2.073 2.073v0h5.528c1.145 0 2.073-0.928 2.073-2.073v0-0.691h11.747c0.382 0 0.691 0.309 0.691 0.691v2.764c0 0.382-0.309 0.691-0.691 0.691h-33.167c-0 0-0 0-0.001 0-0.382 0-0.691-0.309-0.691-0.691 0 0 0 0 0 0v0-2.764z"></path>
</svg>
