<svg width="17" height="16" fill="none" xmlns="http://www.w3.org/2000/svg"><path d="M16.943 5.896a1.168 1.168 0 0 0-.941-.793l-4.18-.608L9.953.708c-.391-.798-1.7-.798-2.091 0L5.99 4.495l-4.18.608a1.167 1.167 0 0 0-.648 1.99L4.19 10.04l-.714 4.162c-.074.438.105.88.463 1.142.363.263.837.296 1.23.088l3.738-1.966 3.738 1.966a1.168 1.168 0 0 0 1.693-1.23l-.714-4.162 3.025-2.949a1.17 1.17 0 0 0 .295-1.196ZM11.556 8.8c-.274.267-.4.655-.335 1.033l.418 2.437-2.19-1.15a1.163 1.163 0 0 0-1.087 0l-2.188 1.15.417-2.437a1.168 1.168 0 0 0-.335-1.033L4.484 7.072l2.448-.355c.38-.055.708-.294.879-.639l1.094-2.216 1.094 2.216c.17.345.498.584.879.639l2.447.355-1.77 1.727Z" fill="#2196F3"/></svg>