<!--envelope-->
<svg width="16" height="12" viewBox="0 0 16 12" fill="none" xmlns="http://www.w3.org/2000/svg">
<path d="M14.5 0H1.50001C0.672854 0 0 0.672853 0 1.50001V10.5C0 11.3271 0.672854 12 1.50001 12H14.5C15.3271 12 16 11.3271 16 10.5V1.50001C16 0.672853 15.3271 0 14.5 0ZM14.5 0.999994C14.5679 0.999994 14.6325 1.01409 14.6916 1.0387L8 6.83838L1.30833 1.0387C1.36742 1.01412 1.43204 0.999994 1.49998 0.999994H14.5ZM14.5 11H1.50001C1.22414 11 0.999996 10.7759 0.999996 10.5V2.09521L7.67236 7.87792C7.76661 7.95944 7.8833 7.99999 8 7.99999C8.1167 7.99999 8.23339 7.95948 8.32764 7.87792L15 2.09521V10.5C15 10.7759 14.7759 11 14.5 11Z" fill="#2196F3"/>
</svg>
<!--mobile phone-->
<svg width="10" height="16" viewBox="0 0 10 16" fill="none" xmlns="http://www.w3.org/2000/svg">
<path d="M8.5 0H1.5C0.672848 0 0 0.672848 0 1.5V14.5C0 15.3272 0.672848 16 1.5 16H8.5C9.32715 16 10 15.3272 10 14.5V1.5C10 0.672848 9.32715 0 8.5 0ZM1.5 1H8.5C8.77588 1 9 1.22412 9 1.5V12H1V1.5C1 1.22412 1.22412 1 1.5 1ZM8.5 15H1.5C1.22412 15 1 14.7759 1 14.5V13H9V14.5C9 14.7759 8.77588 15 8.5 15Z" fill="#757575"/>
</svg>
<!--background index-->
<svg width="1600" height="600" viewBox="0 0 1600 600" fill="none" xmlns="http://www.w3.org/2000/svg">
<rect width="1600" height="600" fill="#2F303A" fill-opacity="0.4"/>
</svg>
<!--sattelite-->
<svg width="66" height="70" viewBox="0 0 66 70" fill="none" xmlns="http://www.w3.org/2000/svg">
<path d="M65.3163 48.3385L46.8468 29.7337L48.8966 19.6373C49.4256 19.8438 49.9879 19.9517 50.5556 19.9558H50.5696C53.1777 19.9866 55.3169 17.8974 55.3479 15.2893C55.3788 12.6812 53.2894 10.542 50.6813 10.5111C48.0732 10.4803 45.934 12.5695 45.9031 15.1776C45.8965 15.7357 45.9888 16.2905 46.176 16.8163L35.326 18.1405L17.6276 0.35C17.4105 0.128479 17.1141 0.00247917 16.804 0C16.4977 0.00160417 16.2044 0.123521 15.9873 0.3395L12.6786 3.6295C12.2232 4.08508 12.2232 4.82358 12.6786 5.27917L14.459 7.08517C7.56162 19.7681 9.80191 35.4741 19.9703 45.7228C20.0636 45.8121 20.1718 45.8843 20.29 45.9363C20.2165 46.3311 20.1781 46.7317 20.1756 47.1333V60.6667H6.17562C2.95562 60.6705 0.346077 63.28 0.342285 66.5V68.8333C0.342285 69.4776 0.86466 70 1.50895 70H55.1756C55.8199 70 56.3423 69.4776 56.3423 68.8333V66.5C56.3385 63.28 53.729 60.6705 50.509 60.6667H36.509V54.6688C38.7021 55.1288 40.9367 55.3633 43.1776 55.3688C48.5548 55.363 53.8464 54.0225 58.5776 51.4675L60.3673 53.2677C60.5844 53.4892 60.8808 53.6152 61.191 53.6177C61.4972 53.6161 61.7905 53.4941 62.0076 53.2782L65.3163 49.9882C65.7717 49.5326 65.7717 48.7941 65.3163 48.3385ZM48.9246 13.6348C49.8383 12.726 51.3157 12.7301 52.2244 13.6437C53.1332 14.5574 53.1291 16.0348 52.2155 16.9435C51.7781 17.3785 51.1864 17.6226 50.5695 17.6225H50.5625C49.2739 17.6158 48.2345 16.5658 48.2412 15.2771C48.2445 14.6602 48.4918 14.0699 48.9291 13.6348H48.9246ZM46.1783 21.301L44.8693 27.7445L42.298 25.158L46.1783 21.301ZM44.853 19.3282L40.653 23.5037L37.4038 20.237L44.853 19.3282ZM50.509 63C52.442 63 54.009 64.567 54.009 66.5V67.6667H2.67562V66.5C2.67562 64.567 4.2426 63 6.17562 63H50.509ZM34.1756 58.3333V60.6667H22.509V58.3333H34.1756ZM22.509 56V47.1333C22.509 44.303 25.1258 42 28.3423 42C31.5588 42 34.1756 44.303 34.1756 47.1333V56H22.509ZM36.509 52.29V47.1333C36.509 43.0162 32.8456 39.6667 28.3423 39.6667C25.4306 39.622 22.7079 41.1041 21.165 43.5738C12.2887 34.2249 10.2899 20.2875 16.1805 8.82073L56.872 49.7455C50.5886 52.9419 43.3857 53.8418 36.509 52.29ZM61.2038 50.7943L59.56 49.1412L16.7923 6.11567L15.1415 4.46133L16.7923 2.81633L34.15 20.272C34.1581 20.272 34.1628 20.2872 34.171 20.293L62.8593 49.1493L61.2038 50.7943Z" fill="#212121"/>
</svg>
<!--watch-->
<svg width="68" height="70" viewBox="0 0 68 70" fill="none" xmlns="http://www.w3.org/2000/svg">
<path d="M67.4614 33.4715C67.4576 14.9819 52.4656 -0.00373771 33.9754 6.99302e-07C15.4858 0.00373911 0.500169 14.9963 0.503907 33.4859C0.507111 48.0502 9.92522 60.9413 23.7995 65.3713C23.9319 65.413 24.0697 65.4343 24.2081 65.4338C24.4719 65.4333 24.7304 65.3628 24.9573 65.2287C25.2527 65.0541 25.4732 64.7764 25.5768 64.449L34.0315 37.6521C36.3429 37.6404 38.2068 35.7568 38.1945 33.4459C38.1827 31.1345 36.2997 29.2706 33.9883 29.2824C33.3666 29.285 32.753 29.4282 32.1944 29.7011L21.0251 18.5302C20.4707 17.9951 19.5879 18.0106 19.0528 18.5644C18.5305 19.1054 18.5305 19.962 19.0528 20.503L30.2162 31.6792C29.3596 33.4277 29.8493 35.5383 31.3895 36.7303L23.3338 62.2647C7.41354 56.4002 -0.738311 38.7405 5.12618 22.8203C10.9907 6.90002 28.6503 -1.25183 44.5706 4.61266C60.4909 10.4771 68.6427 28.1374 62.7782 44.0571C59.913 51.8351 54.0261 58.1252 46.4548 61.4989L45.5842 57.3989C45.4251 56.6454 44.6844 56.1636 43.9308 56.3233C43.6931 56.3741 43.4726 56.4857 43.291 56.6475L34.8978 64.1409C34.322 64.653 34.2708 65.5347 34.7835 66.1105C34.9501 66.2974 35.1637 66.4362 35.403 66.5126L46.1188 69.9327C46.8521 70.1682 47.6377 69.765 47.8732 69.0312C47.948 68.7994 47.9603 68.5527 47.9101 68.3145L47.0545 64.2915C59.4452 59.0678 67.4902 46.918 67.4614 33.4715ZM33.9829 32.0766C34.753 32.0766 35.3779 32.7014 35.3779 33.4715C35.3779 34.2422 34.753 34.8665 33.9829 34.8665C33.2123 34.8665 32.588 34.2422 32.588 33.4715C32.588 32.7014 33.2123 32.0766 33.9829 32.0766ZM38.5774 64.5916L43.3551 60.3298L44.6737 66.543L38.5774 64.5916Z" fill="#212121"/>
</svg>
<!--laptop -->
<svg width="70" height="54" viewBox="0 0 70 54" fill="none" xmlns="http://www.w3.org/2000/svg">
<path d="M3.49817 53.8865H59.4689C61.4007 53.8865 62.967 52.3202 62.967 50.3883V45.7241C62.967 43.7922 61.4007 42.2259 59.4689 42.2259H58.3028V13.1468L64.9262 6.87244C66.4635 7.63026 68.3242 7.17021 69.3302 5.78154C70.3369 4.39343 70.1957 2.48208 68.9966 1.25681C67.7975 0.0315355 65.8901 -0.15123 64.4798 0.824089C63.0701 1.79998 62.569 3.64984 63.2933 5.20363L58.3028 9.93447V7.24423C58.3028 5.31238 56.7365 3.74606 54.8046 3.74606H8.16239C6.23054 3.74606 4.66422 5.31238 4.66422 7.24423V42.2259H3.49817C1.56632 42.2259 0 43.7922 0 45.7241V50.3883C0 52.3202 1.56632 53.8865 3.49817 53.8865ZM66.4652 2.58001C67.1091 2.58001 67.6312 3.10211 67.6312 3.74606C67.6312 4.39001 67.1091 4.91212 66.4652 4.91212C65.8212 4.91212 65.2991 4.39001 65.2991 3.74606C65.2991 3.10211 65.8212 2.58001 66.4652 2.58001ZM6.99634 7.24423C6.99634 6.60028 7.51844 6.07817 8.16239 6.07817H54.8046C55.4486 6.07817 55.9707 6.60028 55.9707 7.24423V12.1413L53.6386 14.3573V9.57634C53.6386 8.93239 53.1165 8.41029 52.4725 8.41029H10.4945C9.85055 8.41029 9.32845 8.93239 9.32845 9.57634V38.7277C9.32845 39.3717 9.85055 39.8938 10.4945 39.8938H52.4725C53.1165 39.8938 53.6386 39.3717 53.6386 38.7277V17.5651L55.9707 15.3554V42.2259H6.99634V7.24423ZM17.4908 22.403C15.9131 22.3984 14.5279 23.4495 14.1083 24.9702C13.6886 26.491 14.3383 28.104 15.6951 28.9091C17.0513 29.7142 18.7793 29.512 19.9129 28.4149L23.9662 30.4486C24.4371 30.6844 25.0081 30.5739 25.3583 30.1805L33.9745 20.4871L42.4443 26.8337C42.8987 27.1742 43.5329 27.1378 43.9452 26.7478L51.3065 19.7748V37.5617H11.6606V10.7424H51.3065V16.5619L43.0564 24.3747L34.5154 17.9716C34.0303 17.6084 33.3476 17.6767 32.9445 18.1293L24.2099 27.9571L20.9446 26.3242C20.9685 26.1841 20.9833 26.0429 20.989 25.9011C20.989 23.9693 19.4227 22.403 17.4908 22.403ZM18.6569 25.9011C18.6569 26.5451 18.1348 27.0672 17.4908 27.0672C16.8469 27.0672 16.3248 26.5451 16.3248 25.9011C16.3248 25.2572 16.8469 24.7351 17.4908 24.7351C18.1348 24.7351 18.6569 25.2572 18.6569 25.9011ZM25.6532 44.558H37.3138V45.7241C37.3138 46.368 36.7917 46.8901 36.1477 46.8901H26.8193C26.1753 46.8901 25.6532 46.368 25.6532 45.7241V44.558ZM2.33211 45.7241C2.33211 45.0801 2.85422 44.558 3.49817 44.558H23.3211V45.7241C23.3211 47.6559 24.8874 49.2223 26.8193 49.2223H36.1477C38.0796 49.2223 39.6459 47.6559 39.6459 45.7241V44.558H59.4689C60.1128 44.558 60.6349 45.0801 60.6349 45.7241V50.3883C60.6349 51.0323 60.1128 51.5544 59.4689 51.5544H3.49817C2.85422 51.5544 2.33211 51.0323 2.33211 50.3883V45.7241Z" fill="#212121"/>
</svg>
<!-- astronaut-->
<svg width="55" height="61" viewBox="0 0 55 61" fill="none" xmlns="http://www.w3.org/2000/svg">
<path d="M54.0635 25.9738C53.4348 25.1256 52.5119 24.5797 51.4642 24.4326C50.4119 24.2833 49.3735 24.5597 48.5335 25.2026L45.7952 27.3014L45.794 27.3026L41.6429 30.4025L38.6725 29.2195C43.9692 26.843 47.6712 21.545 47.6712 15.3942C47.6712 7.03144 40.8402 0.227386 32.4436 0.227386C24.047 0.227386 17.2162 7.03144 17.2162 15.3942C17.2162 18.4253 18.1226 21.244 19.6662 23.6158L13.6204 23.5633C13.6169 23.5633 13.6134 23.5633 13.6099 23.5633C13.5912 23.5633 13.5761 23.5726 13.5586 23.5738C13.4431 23.5785 13.3299 23.6019 13.2191 23.6415C13.1911 23.652 13.162 23.6579 13.1352 23.6706C13.1212 23.6765 13.1072 23.6776 13.0932 23.6846L6.02078 27.1764C6.01955 27.1764 6.01846 27.1764 6.01846 27.1775L1.87663 29.1693C1.8311 29.1891 1.78448 29.2159 1.73895 29.2463C0.0880496 30.3452 -0.474284 32.5036 0.429989 34.2676C0.911793 35.2056 1.73198 35.8964 2.74003 36.2125C3.12859 36.3337 3.52521 36.3933 3.91952 36.3933C4.55308 36.3933 5.18077 36.2382 5.75582 35.9314L8.79157 34.3167L13.7441 31.7593L16.7122 31.7418L4.80848 43.5884C4.80738 43.5896 4.80615 43.5896 4.80492 43.5907L1.8765 46.5074C1.18469 47.1958 0.80433 48.1092 0.80433 49.0835C0.80433 50.0565 1.18469 50.9723 1.8765 51.6619C2.58703 52.3689 3.52152 52.7236 4.45601 52.7236C5.39173 52.7236 6.32498 52.3689 7.03785 51.6619L9.91254 48.7988L13.7206 45.9556L15.6912 47.9179L11.8376 51.7552C11.8365 51.7564 11.8352 51.7564 11.834 51.7575L8.90559 54.6741C8.21378 55.3625 7.83343 56.276 7.83343 57.2502C7.83343 58.2233 8.21378 59.139 8.90559 59.8287C9.61613 60.5356 10.5518 60.8903 11.4863 60.8903C12.4208 60.8903 13.3565 60.5356 14.0682 59.8287L16.9977 56.912L21.6842 52.2453C21.6854 52.2441 21.6854 52.243 21.6865 52.2417L23.8951 50.0542L23.8869 50.046C23.9009 50.0321 23.9207 50.0273 23.9348 50.0122L35.2353 37.6349L42.8281 38.7153C42.8829 38.7235 42.9377 38.7269 42.9926 38.7269C43.1338 38.7269 43.2703 38.6931 43.4021 38.6429C43.4406 38.629 43.4744 38.6103 43.5106 38.5917C43.5526 38.5706 43.5969 38.559 43.6367 38.5322L50.6659 33.8655C50.6916 33.848 50.7056 33.82 50.73 33.8014C50.758 33.7792 50.7931 33.7699 50.8186 33.7453L53.5999 31.1401C55.0471 29.7841 55.2466 27.5628 54.0635 25.9738ZM4.66027 33.8722C4.28114 34.0752 3.85061 34.116 3.43881 33.9854C3.03042 33.8583 2.69915 33.5793 2.50541 33.2025C2.15308 32.5165 2.35721 31.6811 2.97436 31.2297L5.84796 29.8471L6.53977 31.869L6.8303 32.7183L4.66027 33.8722ZM12.3102 29.8741L8.92336 31.6241L8.36459 29.9907L7.96331 28.817L12.3968 26.6282L12.3102 29.8741ZM45.3402 15.3919C45.3402 17.4009 44.8607 19.2957 44.03 20.9908L34.8832 16.8362C34.7875 15.5821 34.1366 14.4842 33.1589 13.8005L36.3615 3.16853C41.5626 4.82298 45.3402 9.67521 45.3402 15.3919ZM19.5519 15.3919C19.5519 8.31593 25.3363 2.55834 32.4461 2.55834C32.9991 2.55834 33.5404 2.60496 34.0759 2.67264L30.9434 13.0714C30.9014 13.0701 30.8617 13.0585 30.8185 13.0585C28.5598 13.0585 26.7222 14.8902 26.7222 17.1419C26.7222 19.3936 28.5598 21.2254 30.8185 21.2254C32.3375 21.2254 33.65 20.3866 34.3582 19.1591L42.8073 22.9976C40.4564 26.1616 36.6938 28.2255 32.4459 28.2255C25.3363 28.2255 19.5519 22.4679 19.5519 15.3919ZM32.5814 17.1419C32.5814 18.1068 31.7903 18.892 30.8185 18.892C29.8467 18.892 29.0557 18.1068 29.0557 17.1419C29.0557 16.1771 29.8467 15.3919 30.8185 15.3919C31.7903 15.3919 32.5814 16.1771 32.5814 17.1419ZM5.39186 50.0075C4.87506 50.5196 4.03846 50.5185 3.52289 50.0087C3.27433 49.7601 3.13788 49.4324 3.13788 49.0835C3.13788 48.7358 3.27433 48.408 3.52289 48.1619L5.62743 46.0652L7.48944 47.9192L5.39186 50.0075ZM12.4222 58.1743C11.9054 58.6865 11.0677 58.6877 10.552 58.1756C10.3034 57.927 10.167 57.5993 10.167 57.2504C10.167 56.9027 10.3034 56.5748 10.552 56.3287L12.6579 54.231L13.5388 55.1073L14.5211 56.085L12.4222 58.1743ZM20.0384 50.5862C20.0371 50.5873 20.036 50.5873 20.0348 50.5885L16.1742 54.4386L15.2933 53.5623L14.311 52.5846L18.168 48.7451C18.168 48.7451 18.168 48.7451 18.168 48.744C18.1693 48.7428 18.1703 48.7428 18.1716 48.7417C18.2591 48.6542 18.3139 48.5492 18.3676 48.4454C18.3828 48.4151 18.4119 48.3894 18.4248 48.3579C18.461 48.2681 18.4668 48.1713 18.4808 48.0767C18.4878 48.0229 18.5112 47.9729 18.5112 47.9179C18.5112 47.8397 18.4832 47.764 18.4669 47.6869C18.4529 47.6169 18.4529 47.5457 18.426 47.4781C18.3817 47.3685 18.3058 47.2717 18.2265 47.1771C18.2044 47.1514 18.1962 47.1187 18.1717 47.0942C18.1717 47.0942 18.1717 47.0942 18.1705 47.0942C18.1693 47.0931 18.1693 47.0906 18.1682 47.0896L14.6529 43.5895C14.6156 43.5522 14.5678 43.537 14.5258 43.5056C14.464 43.4577 14.4045 43.4134 14.3356 43.3795C14.2692 43.3468 14.2015 43.327 14.1315 43.3083C14.0568 43.2872 13.9845 43.2709 13.9063 43.2651C13.8351 43.2604 13.7686 43.2674 13.6975 43.2756C13.6193 43.2849 13.5459 43.2954 13.47 43.3199C13.3965 43.3433 13.3312 43.3794 13.2636 43.4179C13.2204 43.4424 13.1714 43.4506 13.1305 43.4809L9.25136 46.3767L7.2808 44.4143L12.5286 39.1946L22.0674 48.576L20.0384 50.5862ZM34.9545 35.2372C34.9207 35.2326 34.8891 35.2454 34.8554 35.2431C34.7702 35.2385 34.6886 35.2443 34.6034 35.2583C34.5369 35.2699 34.4739 35.2828 34.4109 35.3049C34.3362 35.3306 34.2686 35.3656 34.1996 35.4076C34.1343 35.4472 34.0748 35.4892 34.0177 35.5417C33.9896 35.5662 33.9559 35.5779 33.9302 35.6058L23.6527 46.8621L14.1851 37.5507L20.3825 31.3859C20.8387 30.9309 20.8411 30.1924 20.386 29.735C20.1562 29.5052 19.8541 29.392 19.5519 29.3932V29.3921L14.6985 29.4213L14.7592 25.9049L21.5493 25.9633C24.3166 28.7937 28.176 30.5589 32.4461 30.5589C33.4027 30.5589 34.3361 30.4598 35.2449 30.2905C35.3324 30.3605 35.4186 30.4318 35.5284 30.4761L40.7996 32.5761L41.1332 34.2351L41.5228 36.1717L34.9545 35.2372ZM43.7944 35.6269L43.1096 32.219L46.2736 29.8564L47.102 30.9554L48.3445 32.6051L43.7944 35.6269ZM52.0055 29.4341L50.1726 31.1515L48.1356 28.4471L49.9544 27.053C50.2939 26.7917 50.7221 26.6855 51.1421 26.7403C51.5644 26.7998 51.9378 27.0203 52.1921 27.3621C52.6659 28.0003 52.5853 28.8905 52.0055 29.4341Z" fill="#212121"/>
</svg>
<!--small star-->
<svg width="3" height="4" viewBox="0 0 3 4" fill="none" xmlns="http://www.w3.org/2000/svg">
<path d="M2.49961 0.72525H0.166199V3.05867H2.49961V0.72525Z" fill="#2196F3"/>
</svg>
<!--big star-->
<svg width="17" height="16" viewBox="0 0 17 16" fill="none" xmlns="http://www.w3.org/2000/svg">
<path d="M16.9433 5.8964C16.8056 5.47516 16.4416 5.16727 16.0018 5.10301L11.8228 4.49515L9.95259 0.708118C9.56061 -0.0899213 8.25274 -0.0899213 7.86076 0.708118L5.99056 4.49515L1.81141 5.10315C1.37158 5.16727 1.00763 5.47421 0.868725 5.89654C0.732278 6.31887 0.845345 6.78317 1.1639 7.09244L4.18912 10.0407L3.47517 14.2034C3.40052 14.6409 3.58017 15.0831 3.93838 15.3445C4.30124 15.6082 4.77483 15.6408 5.16804 15.4331L8.90613 13.4672L12.6442 15.4331C12.8146 15.5229 13.0024 15.5672 13.1879 15.5672C13.4294 15.5672 13.671 15.4926 13.874 15.3444C14.2333 15.0831 14.413 14.6408 14.3372 14.2033L13.6233 10.0405L16.6485 7.0923C16.9654 6.78194 17.0798 6.31873 16.9433 5.8964ZM11.5556 8.79912C11.2815 9.06627 11.1555 9.4536 11.2208 9.83164L11.6385 12.2688L9.44987 11.1185C9.27951 11.0286 9.09289 10.9843 8.90613 10.9843C8.7195 10.9843 8.53397 11.0286 8.36239 11.1185L6.17363 12.2688L6.59131 9.83164C6.65666 9.4536 6.5306 9.0675 6.25648 8.79912L4.48431 7.07247L6.93202 6.71659C7.31237 6.66177 7.64023 6.42264 7.81058 6.07838L8.90489 3.86172L9.99921 6.07838C10.1696 6.4225 10.4974 6.66177 10.8778 6.71659L13.3255 7.07247L11.5556 8.79912Z" fill="#2196F3"/>
</svg>
<!--camera-->
<svg width="20" height="20" viewBox="0 0 20 20" fill="none" xmlns="http://www.w3.org/2000/svg">
<path d="M19.9804 5.88005C19.9336 4.81738 19.7617 4.0868 19.5156 3.45374C19.2616 2.78176 18.8709 2.18014 18.359 1.68002C17.8589 1.1721 17.2533 0.777435 16.5891 0.527447C15.9524 0.281274 15.2256 0.109427 14.163 0.0625732C13.0924 0.0117516 12.7525 0 10.0371 0C7.32173 0 6.98185 0.0117516 5.91521 0.0586052C4.85253 0.105459 4.12195 0.277459 3.48904 0.523479C2.81692 0.777435 2.2153 1.16814 1.71517 1.68002C1.20726 2.18014 0.812743 2.78573 0.562603 3.44992C0.31643 4.0868 0.144583 4.81341 0.0977294 5.87609C0.0469078 6.9467 0.0351562 7.28658 0.0351562 10.002C0.0351562 12.7173 0.0469078 13.0572 0.0937614 14.1239C0.140615 15.1865 0.312615 15.9171 0.558787 16.5502C0.812743 17.2221 1.20726 17.8238 1.71517 18.3239C2.2153 18.8318 2.82088 19.2265 3.48508 19.4765C4.12195 19.7226 4.84856 19.8945 5.91139 19.9413C6.97788 19.9883 7.31791 19.9999 10.0333 19.9999C12.7487 19.9999 13.0885 19.9883 14.1552 19.9413C15.2179 19.8945 15.9484 19.7226 16.5813 19.4765C17.9254 18.9568 18.9881 17.8941 19.5078 16.5502C19.7538 15.9133 19.9258 15.1865 19.9727 14.1239C20.0195 13.0572 20.0313 12.7173 20.0313 10.002C20.0313 7.28658 20.0273 6.9467 19.9804 5.88005ZM18.1794 14.0457C18.1364 15.0225 17.9723 15.5499 17.8356 15.9015C17.4995 16.7728 16.808 17.4643 15.9367 17.8004C15.5851 17.9372 15.0538 18.1012 14.0809 18.1441C13.026 18.1911 12.7096 18.2027 10.0411 18.2027C7.37255 18.2027 7.05221 18.1911 6.00113 18.1441C5.02438 18.1012 4.49693 17.9372 4.1453 17.8004C3.71171 17.6402 3.31704 17.3862 2.9967 17.0541C2.6646 16.7298 2.41065 16.3391 2.2504 15.9055C2.11365 15.5539 1.94959 15.0225 1.90671 14.0497C1.8597 12.9948 1.8481 12.6783 1.8481 10.0097C1.8481 7.34122 1.8597 7.02087 1.90671 5.96995C1.94959 4.99319 2.11365 4.46575 2.2504 4.11412C2.41065 3.68038 2.6646 3.28586 3.00067 2.96536C3.32483 2.63327 3.71553 2.37931 4.14927 2.21921C4.5009 2.08247 5.03231 1.9184 6.0051 1.87537C7.05999 1.82851 7.37652 1.81676 10.0449 1.81676C12.7174 1.81676 13.0337 1.82851 14.0848 1.87537C15.0616 1.9184 15.589 2.08247 15.9407 2.21921C16.3742 2.37931 16.7689 2.63327 17.0893 2.96536C17.4213 3.28967 17.6753 3.68038 17.8356 4.11412C17.9723 4.46575 18.1364 4.99701 18.1794 5.96995C18.2263 7.02484 18.238 7.34122 18.238 10.0097C18.238 12.6783 18.2263 12.9908 18.1794 14.0457Z" fill="white"/>
</svg>
<!--tweeter-->
<svg width="20" height="18" viewBox="0 0 20 18" fill="none" xmlns="http://www.w3.org/2000/svg">
<path d="M20 2.79875C19.2563 3.125 18.4637 3.34125 17.6375 3.44625C18.4875 2.93875 19.1363 2.14125 19.4412 1.18C18.6488 1.6525 17.7738 1.98625 16.8412 2.1725C16.0887 1.37125 15.0162 0.875 13.8462 0.875C11.5763 0.875 9.74875 2.7175 9.74875 4.97625C9.74875 5.30125 9.77625 5.61375 9.84375 5.91125C6.435 5.745 3.41875 4.11125 1.3925 1.6225C1.03875 2.23625 0.83125 2.93875 0.83125 3.695C0.83125 5.115 1.5625 6.37375 2.6525 7.1025C1.99375 7.09 1.3475 6.89875 0.8 6.5975C0.8 6.61 0.8 6.62625 0.8 6.6425C0.8 8.635 2.22125 10.29 4.085 10.6712C3.75125 10.7625 3.3875 10.8062 3.01 10.8062C2.7475 10.8062 2.4825 10.7913 2.23375 10.7362C2.765 12.36 4.2725 13.5538 6.065 13.5925C4.67 14.6838 2.89875 15.3412 0.98125 15.3412C0.645 15.3412 0.3225 15.3263 0 15.285C1.81625 16.4563 3.96875 17.125 6.29 17.125C13.835 17.125 17.96 10.875 17.96 5.4575C17.96 5.27625 17.9538 5.10125 17.945 4.9275C18.7588 4.35 19.4425 3.62875 20 2.79875Z" fill="#AFB1B8"/>
</svg>
<!--facebook-->
<svg width="11" height="20" viewBox="0 0 11 20" fill="none" xmlns="http://www.w3.org/2000/svg">
<path d="M8.33088 3.32083H10.1567V0.140833C9.84172 0.0975 8.75839 0 7.49672 0C4.86422 0 3.06088 1.65583 3.06088 4.69917V7.5H0.155884V11.055H3.06088V20H6.62255V11.0558H9.41005L9.85255 7.50083H6.62172V5.05167C6.62255 4.02417 6.89922 3.32083 8.33088 3.32083Z" fill="#AFB1B8"/>
</svg>
<!--linkedin-->
<svg width="5" height="14" viewBox="0 0 5 14" fill="none" xmlns="http://www.w3.org/2000/svg">
<path d="M0.329956 0.647461H4.47662V14H0.329956V0.647461Z" fill="#AFB1B8"/>
</svg>
<svg width="13" height="14" viewBox="0 0 13 14" fill="none" xmlns="http://www.w3.org/2000/svg">
<path d="M12.9951 14V13.9992H13.0001V6.66421C13.0001 3.07587 12.2276 0.311707 8.03256 0.311707C6.01589 0.311707 4.66256 1.41837 4.11005 2.46754H4.05172V0.646706H0.0742188V13.9992H4.21589V7.38754C4.21589 5.64671 4.54589 3.96337 6.70172 3.96337C8.82589 3.96337 8.85756 5.95004 8.85756 7.49921V14H12.9951Z" fill="#AFB1B8"/>
</svg>
<!--companies-->
<!--1-->
<svg width="170" height="92" viewBox="0 0 170 92" fill="none" xmlns="http://www.w3.org/2000/svg">
<rect x="0.5" y="0.5" width="169" height="91" rx="3.5" stroke="#AFB1B8"/>
<path fill-rule="evenodd" clip-rule="evenodd" d="M70 24.7131L77.0078 31.3473L64 31.3396V63.5269H98V51.2202L105 57.8469V24.7131H70ZM97.6924 50.4415L77.8226 31.6311H97.6924V50.4415ZM91.5231 58.8187H69.3801V37.1711H70.9453V57.3528H91.5231V58.8187ZM74.6089 67.8123L73.791 69.4968L72.9731 67.8123H72.2871L73.481 70.0583V71.3669H74.1011V70.0583L75.2925 67.8123H74.6089ZM75.6367 71.3669L75.9248 70.5393H77.3018L77.5923 71.3669H78.2368L76.8916 67.8123H76.3374L74.9946 71.3669H75.6367ZM76.6133 68.5667L77.1284 70.0413H76.0981L76.6133 68.5667ZM79.8701 69.9558C79.7806 70.0925 79.7358 70.2431 79.7358 70.4075C79.7358 70.707 79.8408 70.9503 80.0508 71.1375C80.2624 71.323 80.5439 71.4158 80.8955 71.4158C81.2471 71.4158 81.5498 71.3206 81.8037 71.1301L82.0039 71.3669H82.6924L82.1699 70.7493C82.375 70.4693 82.4775 70.1104 82.4775 69.6726H81.9624C81.9624 69.9119 81.9128 70.1292 81.8135 70.3245L81.1274 69.5139L81.3691 69.3381C81.54 69.2144 81.6629 69.0907 81.7378 68.967C81.8127 68.8417 81.8501 68.705 81.8501 68.5569C81.8501 68.3323 81.7671 68.1443 81.6011 67.9929C81.4367 67.8399 81.2251 67.7634 80.9663 67.7634C80.6798 67.7634 80.452 67.8448 80.2827 68.0076C80.1134 68.1687 80.0288 68.3884 80.0288 68.6667C80.0288 68.7807 80.0557 68.8987 80.1094 69.0208C80.1647 69.1428 80.2616 69.2909 80.3999 69.4651C80.1362 69.6539 79.9596 69.8175 79.8701 69.9558ZM81.4741 70.7419C81.3 70.8754 81.1128 70.9421 80.9126 70.9421C80.7352 70.9421 80.5936 70.8909 80.4878 70.7883C80.382 70.6858 80.3291 70.5523 80.3291 70.3879C80.3291 70.1975 80.4268 70.0282 80.6221 69.8801L80.6978 69.8264L81.4741 70.7419ZM80.8369 69.1672C80.6693 68.9605 80.5854 68.7888 80.5854 68.6521C80.5854 68.5333 80.6196 68.4348 80.688 68.3567C80.7563 68.2786 80.8483 68.2395 80.9639 68.2395C81.0713 68.2395 81.16 68.2729 81.23 68.3396C81.3 68.4047 81.335 68.4836 81.335 68.5764C81.335 68.7164 81.2845 68.8311 81.1836 68.9207L81.1079 68.9817L80.8369 69.1672ZM86.623 71.0984C86.8672 70.8852 87.0072 70.5889 87.043 70.2097H86.4277C86.3952 70.4636 86.3179 70.6451 86.1958 70.7542C86.0737 70.8632 85.8914 70.9177 85.6489 70.9177C85.3836 70.9177 85.1818 70.8168 85.0435 70.615C84.9067 70.4132 84.8384 70.1202 84.8384 69.7361V69.4211C84.8416 69.0419 84.9149 68.7546 85.0581 68.5593C85.203 68.3624 85.4097 68.2639 85.6782 68.2639C85.9093 68.2639 86.0843 68.3209 86.2031 68.4348C86.3236 68.5471 86.3984 68.731 86.4277 68.9866H87.043C87.0039 68.5976 86.8647 68.2965 86.6255 68.0833C86.3862 67.87 86.0705 67.7634 85.6782 67.7634C85.3869 67.7634 85.1297 67.8326 84.9067 67.9709C84.6854 68.1093 84.5153 68.3062 84.3965 68.5618C84.2777 68.8173 84.2183 69.1127 84.2183 69.448V69.78C84.2231 70.1072 84.2842 70.3945 84.4014 70.6418C84.5186 70.8892 84.6846 71.0805 84.8994 71.2156C85.1159 71.349 85.3657 71.4158 85.6489 71.4158C86.0542 71.4158 86.3789 71.31 86.623 71.0984ZM90.2534 70.6003C90.3739 70.3367 90.4341 70.0307 90.4341 69.6824V69.4846C90.4325 69.1379 90.3706 68.8344 90.2485 68.574C90.1265 68.3119 89.9531 68.1117 89.7285 67.9734C89.5055 67.8334 89.2492 67.7634 88.9595 67.7634C88.6698 67.7634 88.4126 67.8342 88.188 67.9758C87.965 68.1158 87.7917 68.3184 87.668 68.5837C87.5459 68.849 87.4849 69.155 87.4849 69.5017V69.7019C87.4865 70.0421 87.5483 70.3424 87.6704 70.6028C87.7941 70.8632 87.9683 71.0642 88.1929 71.2058C88.4191 71.3458 88.6763 71.4158 88.9644 71.4158C89.2557 71.4158 89.5129 71.3458 89.7358 71.2058C89.9604 71.0642 90.133 70.8624 90.2534 70.6003ZM89.5918 68.5911C89.7415 68.801 89.8164 69.1029 89.8164 69.4968V69.6824C89.8164 70.0828 89.7423 70.3871 89.5942 70.5955C89.4478 70.8038 89.2378 70.908 88.9644 70.908C88.6942 70.908 88.4826 70.8013 88.3296 70.5881C88.1782 70.3749 88.1025 70.073 88.1025 69.6824V69.4773C88.1058 69.0948 88.1823 68.7994 88.332 68.5911C88.4834 68.3811 88.6925 68.2761 88.9595 68.2761C89.2329 68.2761 89.4437 68.3811 89.5918 68.5911Z" fill="#AFB1B8"/>
</svg>
<!--2-->
<svg width="170" height="92" viewBox="0 0 170 92" fill="none" xmlns="http://www.w3.org/2000/svg">
<rect x="0.5" y="0.5" width="169" height="91" rx="3.5" stroke="#AFB1B8"/>
<path fill-rule="evenodd" clip-rule="evenodd" d="M82.1136 23.6477H81.977C81.7671 23.6349 81.5571 23.6299 81.3471 23.6248H81.3471H81.3269H80.8918C80.4946 23.6248 80.0898 23.6349 79.6876 23.6553C79.6573 23.6531 79.6269 23.6531 79.5966 23.6553C75.9522 23.8618 72.3817 24.7726 69.0805 26.3381L68.6479 26.5466V48.6877L69.6598 48.3444C70.5477 48.0393 71.4938 47.7646 72.4728 47.5103C75.1193 46.8309 77.8367 46.4699 80.568 46.4347V49.3438C80.2062 49.3463 79.8546 49.3565 79.503 49.3743H79.4195C77.3175 49.4896 75.2317 49.8098 73.1913 50.3304C70.6072 50.9774 68.1143 51.9488 65.7716 53.2217V24.825C68.2047 23.4059 70.8253 22.34 73.5556 21.6591C75.9527 21.0402 78.4169 20.7224 80.8918 20.7131H81.3193C81.8303 20.7258 82.3287 20.7487 82.7967 20.7843C84.0297 20.8709 85.2528 21.0658 86.4521 21.3667V24.23C85.2874 23.9586 84.1032 23.7801 82.9105 23.696C82.8863 23.6939 82.8621 23.6919 82.8379 23.6898C82.5911 23.6687 82.344 23.6477 82.1136 23.6477ZM87.1528 26.5745C87.7877 26.6228 88.4455 26.6457 89.1108 26.6457C91.7125 26.6362 94.3031 26.304 96.8239 25.6565C99.4068 25.0071 101.899 24.0349 104.241 22.7627V50.6533C101.807 52.0716 99.1853 53.1375 96.4546 53.8193C94.0571 54.4358 91.5931 54.7527 89.1184 54.7627C87.2433 54.7778 85.3737 54.5574 83.553 54.1066V26.0354C83.983 26.1346 84.4257 26.2261 84.876 26.3024C85.6147 26.427 86.3939 26.5186 87.1528 26.5745ZM101.347 26.7907L100.335 27.1314C99.4042 27.4442 98.4657 27.7239 97.5221 27.9731C94.7749 28.6791 91.9514 29.0412 89.1158 29.0513C88.4556 29.0513 87.8485 29.0335 87.2616 28.9954L86.4546 28.942V49.031V51.7188L87.1477 51.7799C87.7903 51.8358 88.4531 51.8638 89.1209 51.8638C91.3544 51.8543 93.5781 51.5664 95.7412 51.0068C97.5223 50.56 99.2552 49.9374 100.914 49.1479L101.347 48.9394V26.7907Z" fill="#AFB1B8"/>
<path d="M67.7371 62.9255C67.5917 62.7746 67.4163 62.6562 67.2224 62.5777C67.0284 62.4993 66.8203 62.4627 66.6114 62.4703C66.3888 62.4674 66.1678 62.5089 65.9613 62.5924C65.7719 62.6678 65.5998 62.7812 65.4553 62.9255C65.3125 63.0703 65.2013 63.2436 65.129 63.4341C65.0497 63.6338 65.0101 63.8472 65.0126 64.0622V67.8562C65.0036 68.1236 65.0546 68.3895 65.1619 68.6344C65.2514 68.8288 65.3807 69.0021 65.5413 69.1429C65.693 69.2706 65.871 69.3627 66.0625 69.4125C66.2469 69.4643 66.4376 69.4909 66.6291 69.4913C66.8404 69.4934 67.0495 69.4483 67.2413 69.3591C67.4309 69.2761 67.6028 69.1569 67.7473 69.0082C67.8881 68.8608 68.0005 68.6883 68.0786 68.4996C68.1597 68.3083 68.201 68.1023 68.2001 67.8944V67.4697H67.2084V67.8079C67.2114 67.9234 67.1916 68.0383 67.1502 68.1461C67.1179 68.2269 67.0688 68.2997 67.006 68.3597C66.9446 68.4094 66.8742 68.4465 66.7986 68.4691C66.7316 68.4914 66.6617 68.5034 66.5912 68.5047C66.5026 68.515 66.413 68.5016 66.3312 68.4659C66.2495 68.4301 66.1786 68.3734 66.1257 68.3012C66.0322 68.1488 65.9864 67.9716 65.9942 67.7927V64.2555C65.988 64.0593 66.0297 63.8646 66.1156 63.6884C66.1671 63.6083 66.2399 63.5444 66.3258 63.5039C66.4117 63.4635 66.5071 63.4481 66.6013 63.4595C66.6868 63.4565 66.7717 63.4743 66.8488 63.5115C66.9259 63.5487 66.9929 63.6042 67.044 63.6731C67.155 63.8188 67.213 63.9983 67.2084 64.1817V64.5098H68.19V64.1232C68.1919 63.8962 68.1507 63.671 68.0685 63.4595C67.9953 63.2608 67.8825 63.0791 67.7371 62.9255Z" fill="#AFB1B8"/>
<path d="M73.6289 62.8822C73.3127 62.6152 72.9136 62.4677 72.5007 62.4652C72.2987 62.4661 72.0984 62.5022 71.9087 62.572C71.7161 62.641 71.5384 62.7463 71.3851 62.8822C71.2208 63.0299 71.0897 63.2111 71.0005 63.4137C70.9006 63.6455 70.8515 63.8961 70.8563 64.1486V67.7875C70.8495 68.0435 70.8987 68.2979 71.0005 68.5326C71.0903 68.7283 71.2215 68.9019 71.3851 69.0412C71.5367 69.1819 71.7147 69.2909 71.9087 69.3616C72.0984 69.4314 72.2987 69.4675 72.5007 69.4684C72.7027 69.468 72.9031 69.4319 73.0926 69.3616C73.29 69.2899 73.4719 69.1812 73.6289 69.0412C73.7871 68.8993 73.9145 68.7261 74.0033 68.5326C74.1051 68.2979 74.1544 68.0435 74.1475 67.7875V64.1486C74.1524 63.8961 74.1032 63.6455 74.0033 63.4137C73.9151 63.2132 73.7878 63.0325 73.6289 62.8822ZM73.166 67.7875C73.1743 67.8845 73.1609 67.9821 73.1268 68.0732C73.0926 68.1643 73.0386 68.2466 72.9687 68.3139C72.8377 68.4238 72.6725 68.4839 72.5019 68.4839C72.3313 68.4839 72.1662 68.4238 72.0352 68.3139C71.9652 68.2466 71.9112 68.1643 71.8771 68.0732C71.8429 67.9821 71.8295 67.8845 71.8379 67.7875V64.1486C71.8295 64.0516 71.8429 63.954 71.8771 63.8629C71.9112 63.7718 71.9652 63.6896 72.0352 63.6222C72.1662 63.5124 72.3313 63.4522 72.5019 63.4522C72.6725 63.4522 72.8377 63.5124 72.9687 63.6222C73.0386 63.6896 73.0926 63.7718 73.1268 63.8629C73.1609 63.954 73.1743 64.0516 73.166 64.1486V67.7875Z" fill="#AFB1B8"/>
<path d="M81.3673 69.4125V62.5238H80.4136L79.1614 66.1703H79.1437L77.8813 62.5238H76.9377V69.4125H77.9218V65.2218H77.9395L78.9033 68.1843H79.3941L80.3655 65.2218H80.3832V69.4125H81.3673Z" fill="#AFB1B8"/>
<path d="M86.9581 63.0068C86.8065 62.8368 86.6153 62.7075 86.4015 62.6304C86.1712 62.5555 85.9302 62.5194 85.6881 62.5236H84.226V69.4124H85.2075V66.722H85.7134C86.0197 66.7359 86.3244 66.6712 86.5988 66.5338C86.822 66.4099 87.0081 66.2281 87.1377 66.0074C87.2512 65.8242 87.3277 65.6203 87.3628 65.4073C87.4014 65.1481 87.4192 64.8862 87.4159 64.6241C87.4255 64.2933 87.3932 63.9626 87.3198 63.64C87.2543 63.4016 87.1299 63.1838 86.9581 63.0068ZM86.4521 65.1072C86.4479 65.232 86.4168 65.3543 86.361 65.4658C86.3049 65.5717 86.2162 65.6565 86.1081 65.7074C85.9627 65.7724 85.8041 65.802 85.6451 65.7938H85.1974V63.4518H85.7033C85.8557 63.4443 86.0075 63.474 86.146 63.5383C86.2475 63.5965 86.3281 63.6855 86.3762 63.7926C86.4299 63.9136 86.4591 64.0441 86.4622 64.1765C86.4622 64.3215 86.4622 64.4741 86.4622 64.6343C86.4622 64.7945 86.4723 64.9598 86.4622 65.1072H86.4521Z" fill="#AFB1B8"/>
<path d="M91.6077 62.5238H90.8032L89.2854 69.4125H90.2669L90.5553 67.9326H91.8935L92.1819 69.4125H93.1635L91.6077 62.5238ZM90.702 66.9942L91.1852 64.4971H91.2029L91.6836 66.9942H90.702Z" fill="#AFB1B8"/>
<path d="M97.9497 66.6738H97.932L96.4496 62.5238H95.506V69.4125H96.4875V65.2701H96.5078L98.0079 69.4125H98.9312V62.5238H97.9497V66.6738Z" fill="#AFB1B8"/>
<path d="M103.948 62.5238L103.158 65.2625H103.138L102.349 62.5238H101.309L102.657 66.5009V69.4125H103.639V66.5009L104.987 62.5238H103.948Z" fill="#AFB1B8"/>
<path d="M65 71.3577H65.4731V72.6851H65.7943V71.3577H66.2649V71.0856H65V71.3577Z" fill="#AFB1B8"/>
<path d="M68.9767 71.0856L68.3569 72.6851H68.6984L68.83 72.3214H69.4675L69.6041 72.6851H69.9532L69.3182 71.0856H68.9767ZM68.9261 72.0519L69.1437 71.4594L69.3612 72.0519H68.9261Z" fill="#AFB1B8"/>
<path d="M72.9079 72.0953H73.2773V72.3012C73.1694 72.3877 73.0358 72.4352 72.8978 72.436C72.8333 72.4396 72.7689 72.4277 72.7099 72.4011C72.6509 72.3746 72.5991 72.3342 72.5588 72.2834C72.474 72.1617 72.4322 72.0149 72.4399 71.8664C72.4399 71.5104 72.5942 71.3324 72.9003 71.3324C72.9809 71.3244 73.0617 71.3456 73.128 71.3922C73.1944 71.4389 73.2419 71.5079 73.2621 71.5867L73.5783 71.5257C73.51 71.2129 73.2849 71.0552 72.9003 71.0552C72.6947 71.0497 72.4947 71.1234 72.3413 71.2612C72.2607 71.3408 72.1983 71.4371 72.1586 71.5433C72.1188 71.6496 72.1026 71.7633 72.1111 71.8766C72.1017 72.0954 72.1749 72.3097 72.316 72.4767C72.3943 72.5575 72.4892 72.6202 72.594 72.6606C72.6988 72.701 72.8111 72.7181 72.9231 72.7106C73.1734 72.7176 73.4165 72.6264 73.6011 72.4564V71.8257H72.9079V72.0953Z" fill="#AFB1B8"/>
<path d="M76.9226 71.0856H76.5988V72.6851H77.7194V72.413H76.9226V71.0856Z" fill="#AFB1B8"/>
<path d="M80.3175 71.0856H79.9937V72.6851H80.3175V71.0856Z" fill="#AFB1B8"/>
<path d="M83.6365 72.1536L82.9813 71.0856H82.6676V72.6851H82.9686V71.6399L83.6112 72.6851H83.9325V71.0856H83.6365V72.1536Z" fill="#AFB1B8"/>
<path d="M86.6368 71.9807H87.4337V71.7086H86.6368V71.3577H87.4944V71.0856H86.313V72.6851H87.5273V72.413H86.6368V71.9807Z" fill="#AFB1B8"/>
<path d="M93.9122 71.7162H93.2823V71.0856H92.9611V72.6851H93.2823V71.9858H93.9122V72.6851H94.2335V71.0856H93.9122V71.7162Z" fill="#AFB1B8"/>
<path d="M96.9302 71.9807H97.7296V71.7086H96.9302V71.3577H97.7903V71.0856H96.6089V72.6851H97.8206V72.413H96.9302V71.9807Z" fill="#AFB1B8"/>
<path d="M101.023 71.9807C101.302 71.9375 101.443 71.79 101.443 71.5357C101.451 71.4677 101.441 71.3987 101.413 71.3361C101.386 71.2735 101.342 71.2194 101.286 71.1797C101.141 71.107 100.98 71.0745 100.818 71.0856H100.14V72.6851H100.462V72.0163H100.525C100.593 72.0121 100.662 72.0243 100.725 72.0519C100.772 72.0809 100.811 72.1211 100.839 72.1689L101.188 72.6775H101.572L101.377 72.3647C101.291 72.2103 101.17 72.0787 101.023 71.9807ZM100.699 71.7595H100.462V71.3577H100.715C100.825 71.3488 100.936 71.3618 101.041 71.3959C101.064 71.4165 101.083 71.4422 101.095 71.471C101.107 71.4998 101.113 71.531 101.111 71.5623C101.11 71.5936 101.101 71.6241 101.087 71.6516C101.072 71.6792 101.051 71.703 101.026 71.7214C100.92 71.7537 100.81 71.7667 100.699 71.7595Z" fill="#AFB1B8"/>
<path d="M104.11 71.9807H104.906V71.7086H104.11V71.3577H104.97V71.0856H103.786V72.6851H105V72.413H104.11V71.9807Z" fill="#AFB1B8"/>
</svg>

<!--6-->
<svg width="170" height="92" viewBox="0 0 170 92" fill="none" xmlns="http://www.w3.org/2000/svg">
<rect x="0.5" y="0.5" width="169" height="91" rx="3.5" stroke="#AFB1B8"/>
<path d="M85.425 43.4082C84.9819 42.8184 84.7699 42.1213 84.8203 41.4196V38.5364C84.8203 37.6526 85.0207 36.9809 85.4216 36.5214C85.8224 36.0619 86.511 35.8331 87.4871 35.8351C88.4044 35.8351 89.0555 36.0306 89.4405 36.4217C89.8605 36.9207 90.0648 37.5309 90.018 38.1463V38.8239H88.3772V38.1375C88.383 37.9129 88.3671 37.6882 88.3296 37.4659C88.306 37.3138 88.2234 37.1732 88.0952 37.067C87.9267 36.9525 87.7145 36.897 87.5007 36.9115C87.2759 36.897 87.0529 36.9556 86.8756 37.0758C86.7327 37.1935 86.6374 37.3477 86.6038 37.5157C86.5567 37.7511 86.5351 37.9897 86.5393 38.2285V41.7276C86.5134 42.0652 86.5858 42.403 86.7499 42.7102C86.8315 42.8141 86.9448 42.8965 87.0774 42.9483C87.2099 43.0001 87.3564 43.0192 87.5007 43.0035C87.7109 43.0184 87.9195 42.9615 88.0816 42.8451C88.2153 42.7305 88.3013 42.581 88.3262 42.4198C88.3645 42.1877 88.3816 41.9533 88.3772 41.7188V41.009H90.018V41.6572C90.0641 42.2988 89.8648 42.9356 89.4507 43.4698C89.0736 43.8981 88.4315 44.1122 87.4871 44.1122C86.5427 44.1122 85.8292 43.8834 85.425 43.4082Z" fill="#AFB1B8"/>
<path d="M92.2569 43.4376C91.8424 42.9888 91.6352 42.3347 91.6352 41.4695V38.4367C91.6352 37.5803 91.8424 36.9321 92.2569 36.4921C92.6713 36.0521 93.3644 35.8331 94.3359 35.8351C95.3007 35.8351 95.9904 36.0541 96.4048 36.4921C96.8193 36.9321 97.0299 37.5803 97.0299 38.4367V41.4695C97.0299 42.3259 96.8193 42.9829 96.398 43.4346C95.9768 43.8863 95.2906 44.1122 94.3359 44.1122C93.3813 44.1122 92.6747 43.8834 92.2569 43.4376ZM95.1003 42.7102C95.2487 42.4291 95.3163 42.1212 95.2974 41.8127V38.0994C95.3164 37.7969 95.2499 37.4949 95.1037 37.2195C95.0205 37.1134 94.9043 37.0296 94.7686 36.9777C94.6328 36.9259 94.4829 36.908 94.3359 36.9262C94.1885 36.9085 94.0383 36.9265 93.9021 36.9783C93.7659 37.0301 93.6491 37.1136 93.5648 37.2195C93.4154 37.4941 93.3477 37.7965 93.3678 38.0994V41.8303C93.3471 42.1389 93.4148 42.4471 93.5648 42.7278C93.6604 42.8224 93.7785 42.8982 93.9109 42.9502C94.0433 43.0021 94.1871 43.029 94.3326 43.029C94.478 43.029 94.6218 43.0021 94.7542 42.9502C94.8866 42.8982 95.0047 42.8224 95.1003 42.7278V42.7102Z" fill="#AFB1B8"/>
<path d="M99.0035 35.9236H100.77L102.098 41.5192L103.457 35.9236H105.176L105.35 44.0003H104.079L103.943 38.3871L102.632 44.0003H101.613L100.254 38.3665L100.128 44.0003H98.8439L99.0035 35.9236Z" fill="#AFB1B8"/>
<path d="M107.33 35.9236H110.082C111.667 35.9236 112.46 36.688 112.46 38.217C112.46 39.6814 111.625 40.4126 109.956 40.4106H109.019V44.0003H107.32L107.33 35.9236ZM109.681 39.3754C109.849 39.3938 110.019 39.3805 110.181 39.3364C110.342 39.2924 110.49 39.2186 110.615 39.1203C110.81 38.8475 110.896 38.5271 110.86 38.2082C110.869 37.9618 110.841 37.7154 110.778 37.475C110.754 37.3947 110.712 37.3194 110.653 37.2534C110.595 37.1874 110.522 37.1322 110.439 37.0908C110.203 36.9932 109.942 36.9488 109.681 36.9618H109.022V39.3754H109.681Z" fill="#AFB1B8"/>
<path d="M114.909 35.9236H116.734L118.606 44.0003H117.022L116.652 42.138H115.025L114.644 44.0003H113.038L114.909 35.9236ZM116.469 41.2025L115.833 37.8123L115.198 41.2025H116.469Z" fill="#AFB1B8"/>
<path d="M120.117 35.9236H121.306L123.582 40.5309V35.9236H124.992V44.0003H123.861L121.571 39.1906V44.0003H120.114L120.117 35.9236Z" fill="#AFB1B8"/>
<path d="M128.294 40.9208L126.402 35.9349H127.996L129.151 39.1376L130.234 35.9349H131.794L129.925 40.9208V44.0003H128.294V40.9208Z" fill="#AFB1B8"/>
<path d="M88.0477 47.5316V47.954H86.6617V51.2359H86.0807V47.954H84.6879V47.5316H88.0477Z" fill="#AFB1B8"/>
<path d="M92.3927 51.2362H91.9442C91.8987 51.2386 91.8538 51.2261 91.8185 51.201C91.7846 51.1795 91.7587 51.15 91.7438 51.116L91.3429 50.2361H89.4201L89.0192 51.116C89.0078 51.1528 88.9869 51.1868 88.958 51.2157C88.9225 51.2402 88.8778 51.2527 88.8324 51.2509H88.3839L90.0825 47.5468H90.6737L92.3927 51.2362ZM89.5797 49.8607H91.1833L90.5038 48.3533C90.4537 48.2393 90.4117 48.1227 90.3781 48.0043C90.3543 48.0747 90.3339 48.1421 90.3136 48.2008L90.2524 48.3562L89.5797 49.8607Z" fill="#AFB1B8"/>
<path d="M95.3211 50.8724C95.4275 50.8772 95.5341 50.8772 95.6404 50.8724C95.7323 50.8642 95.8232 50.8495 95.9122 50.8284C95.9954 50.8107 96.0772 50.7882 96.1568 50.7609C96.2316 50.7345 96.3063 50.7022 96.3844 50.67V49.8369H95.705C95.6882 49.8378 95.6714 49.8356 95.6556 49.8305C95.6398 49.8255 95.6254 49.8177 95.6133 49.8076C95.6021 49.7993 95.5933 49.7889 95.5874 49.7772C95.5815 49.7655 95.5787 49.7529 95.5793 49.7401V49.4556H96.8974V50.8753C96.7898 50.9417 96.6762 51.0006 96.5577 51.0513C96.4366 51.1029 96.3104 51.1451 96.1806 51.1774C96.0417 51.2127 95.8996 51.2382 95.7559 51.2537C95.5912 51.2695 95.4257 51.2773 95.26 51.2771C94.967 51.2793 94.6763 51.2325 94.4038 51.1393C94.1495 51.051 93.9184 50.9193 93.7244 50.7521C93.5353 50.5832 93.3864 50.3839 93.2862 50.1655C93.1791 49.9199 93.1261 49.6593 93.1299 49.397C93.1263 49.133 93.1781 48.8706 93.2828 48.6226C93.3805 48.4031 93.5297 48.2033 93.721 48.036C93.9149 47.8693 94.1461 47.7386 94.4005 47.6517C94.6914 47.5572 95.0001 47.5105 95.3109 47.5138C95.4691 47.5137 95.627 47.5245 95.7831 47.5461C95.9212 47.5655 96.0567 47.597 96.1874 47.64C96.3062 47.6785 96.4201 47.7277 96.5271 47.7866C96.6312 47.8445 96.7301 47.9092 96.8227 47.9802L96.6596 48.209C96.6468 48.2299 96.6278 48.2475 96.6045 48.2598C96.5812 48.2722 96.5545 48.279 96.5271 48.2794C96.4895 48.2784 96.453 48.2682 96.4218 48.2501C96.3708 48.2266 96.3165 48.1973 96.2553 48.1621C96.1831 48.123 96.1069 48.0896 96.0277 48.0624C95.9265 48.0273 95.8219 47.9998 95.7152 47.9802C95.5729 47.9576 95.4284 47.9468 95.2837 47.948C95.0596 47.9458 94.8371 47.9807 94.6281 48.0506C94.439 48.1161 94.2686 48.2162 94.1287 48.3439C93.9879 48.4771 93.8803 48.6339 93.8127 48.8045C93.661 49.2056 93.661 49.6381 93.8127 50.0393C93.8871 50.2135 94.0028 50.3724 94.1525 50.5057C94.2918 50.6328 94.4609 50.7328 94.6485 50.799C94.8645 50.8631 95.0934 50.888 95.3211 50.8724Z" fill="#AFB1B8"/>
<path d="M100.736 50.8136H102.591V51.2359H100.169V47.5316H100.75L100.736 50.8136Z" fill="#AFB1B8"/>
<path d="M104.521 51.2359H103.94V47.5316H104.521V51.2359Z" fill="#AFB1B8"/>
<path d="M106.681 47.5492C106.716 47.5662 106.746 47.5892 106.77 47.6167L109.253 50.409C109.25 50.3651 109.25 50.321 109.253 50.277C109.253 50.236 109.253 50.1949 109.253 50.1568V47.517H109.759V51.2362H109.467C109.424 51.2392 109.38 51.2321 109.341 51.2156C109.306 51.1972 109.275 51.1733 109.25 51.1452L106.77 48.3558C106.77 48.3998 106.77 48.4409 106.77 48.482C106.77 48.523 106.77 48.5612 106.77 48.5964V51.2362H106.284V47.5316H106.586C106.619 47.5317 106.651 47.5377 106.681 47.5492Z" fill="#AFB1B8"/>
<path d="M114.036 47.5316V47.9393H111.978V49.1624H113.646V49.5554H111.978V50.8195H114.036V51.2272H111.38V47.5316H114.036Z" fill="#AFB1B8"/>
<path d="M53.1617 24.6555L78.9568 30.9788V53.1368L53.1617 46.8164V24.6555ZM51.5073 22.7667V47.8928L80.6079 55.0285V29.9054L51.5073 22.7667Z" fill="#AFB1B8"/>
<path d="M67.1039 66.6922L38 59.5505V34.4271L67.1039 41.5659V66.6922Z" fill="#AFB1B8"/>
<path d="M51.9897 24.371L77.4484 30.615L66.6215 39.9649L41.1594 33.7179L51.9897 24.371ZM51.5073 22.7667L38 34.4277L67.1039 41.5662L80.6078 29.9053L51.5073 22.7667Z" fill="#AFB1B8"/>
<path d="M68.7414 65.2788L80.6078 55.0315L68.7414 52.1193V65.2788Z" fill="#AFB1B8"/>
</svg>
